<svg id="Capa_1" data-name="Capa 1" xmlns="http://www.w3.org/2000/svg" xmlns:xlink="http://www.w3.org/1999/xlink" viewBox="0 0 82.5 82"><defs><style>.cls-1{fill:url(#Degradado_sin_nombre_30);}.cls-2{fill:url(#Degradado_sin_nombre_30-2);}.cls-3{fill:url(#Degradado_sin_nombre_30-3);}.cls-4{fill:url(#Degradado_sin_nombre_30-4);}.cls-5{fill:url(#Degradado_sin_nombre_30-5);}</style><linearGradient id="Degradado_sin_nombre_30" x1="-5.4" y1="2.69" x2="83.31" y2="93.52" gradientUnits="userSpaceOnUse"><stop offset="0" stop-color="#ef0b51"/><stop offset="1" stop-color="#8d0068"/></linearGradient><linearGradient id="Degradado_sin_nombre_30-2" x1="70.86" y1="50.04" x2="86.05" y2="65.59" xlink:href="#Degradado_sin_nombre_30"/><linearGradient id="Degradado_sin_nombre_30-3" x1="3.41" y1="-5.91" x2="92.12" y2="84.91" xlink:href="#Degradado_sin_nombre_30"/><linearGradient id="Degradado_sin_nombre_30-4" x1="-0.68" y1="-1.92" x2="88.03" y2="88.91" xlink:href="#Degradado_sin_nombre_30"/><linearGradient id="Degradado_sin_nombre_30-5" x1="-0.03" y1="-2.55" x2="88.68" y2="88.27" xlink:href="#Degradado_sin_nombre_30"/></defs><path class="cls-1" d="M75.42,42.84c0-.4.16-.54.56-.52s.93,0,1.38,0a3,3,0,0,0,3.43-1.94V39.15c-.28-.67-4.17-7.08-4.2-7.15a2.66,2.66,0,0,0-4.84.07c-1.07,2-2.3,3.93-3.52,5.85a3.18,3.18,0,0,0-.4,2.92,3.4,3.4,0,0,0,1.54,1.39,19,19,0,0,0,2.92.09c.39,0,.52.08.51.51,0,2.14,0,2.14-2.14,2.13-1.2,0-2.41,0-3.61,0a13.11,13.11,0,0,0-1.68.15,3.9,3.9,0,0,0-3,3.59c0,.33,0,.66-.07,1,0,1.33.08,2.67,0,4a4.21,4.21,0,0,0,2.26,4.14,7.56,7.56,0,0,0,3.15.34A17,17,0,0,1,66,60.67c-.11.14-.27.1-.42.1-1.16,0-6.7,0-8.32,0a3.94,3.94,0,0,0-4.12,4.12c0,1.62.12,5.32-.11,5.42-.76.3-1.54.56-2.31.83-.24.08-.22-.14-.26-.28-.91-2.81-1.84-3.49-4.8-3.49-.33,0-7.53,0-9.25,0-2.44,0-3.77,1-4.31,3.41-.09.39-.22.44-.55.32-1.11-.4-3.56-1.41-3.7-1.47-1.13-.54-1.13-.55-1.06-1.85,0-.79,0-1.58,0-2.37,0-2.71-.86-3.86-3.42-4.64-1,0-5.23,0-6.38,0a.72.72,0,0,1-.63-.34,27.39,27.39,0,0,1-2.8-4.28l-1-1.71a1.36,1.36,0,0,0-1.88,1.93.79.79,0,0,1,.06.22l1.05,1.86a6.37,6.37,0,0,1,.95,2.31c-2.83,0-4.36,1.57-4.37,4.41,0,1.41,0,2.83,0,4.24A5.43,5.43,0,0,0,8.83,72a5.9,5.9,0,0,0,1.63,1.52,5.94,5.94,0,0,0,2.4.39c2.57,0,9.76,0,10.79,0a4.19,4.19,0,0,0,2.44-1.76c.23-.39.45-.21.7-.09a31.79,31.79,0,0,0,4.74,1.78c.34.1.52.22.5.62,0,.84,0,1.69,0,2.54a6.5,6.5,0,0,0,.8,2,6.19,6.19,0,0,0,2.28,1.56h12.2a10,10,0,0,0,1.55-.74,4.08,4.08,0,0,0,1.67-3.37l0-1.6c-.31-1.15.64-1,1.23-1.21.26-.1.53-.19.79-.3.94-.41,1.81-.74,2.74.16a2.9,2.9,0,0,0,2.05.46c1.64,0,9.55,0,10.31,0a3.89,3.89,0,0,0,3.9-3.9c0-.77,0-4.37,0-5.4A4.1,4.1,0,0,0,69.08,61c.53-.83,1.06-1.62,1.54-2.44a.84.84,0,0,1,.86-.47c1.62,0,3.24,0,4.87,0a5.87,5.87,0,0,0,2.11-.34.12.12,0,0,1,.17-.1,3.43,3.43,0,0,0,2.16-2.65v-7A6.85,6.85,0,0,0,79.55,46a7.79,7.79,0,0,0-1.7-.93c-.71,0-1.43-.06-2.15-.07-.32,0-.45-.09-.4-.45A15.63,15.63,0,0,0,75.42,42.84ZM22.79,71.29c-3.31,0-6.63,0-9.95,0C11.46,71.35,11,71,11,69.73c0-1.67,0-3.34,0-5a1.26,1.26,0,0,1,1.39-1.32c1.59,0,3.18,0,4.77,0h3.13c.82,0,1.64,0,2.46,0a1.29,1.29,0,0,1,1.39,1.41c0,1.69,0,3.39,0,5.09A1.25,1.25,0,0,1,22.79,71.29Zm25,5.34a1.26,1.26,0,0,1-1.37,1.27H36c-.79,0-1.16-.38-1.31-1.21a17,17,0,0,1,0-2.94c0-.8,0-1.59,0-2.38A1.28,1.28,0,0,1,36.1,70c.79,0,1.59,0,2.38,0h2.93c1.7,0,3.39,0,5.09,0a1.22,1.22,0,0,1,1.33,1.21C47.88,73,47.87,74.83,47.83,76.63ZM68.91,70a1.22,1.22,0,0,1-1.26,1.27c-.71,0-1.43,0-2.15,0-2.81,0-5.63,0-8.45,0-.92,0-1.31-.59-1.25-1.7V66.64c0-.64,0-1.28,0-1.91a1.28,1.28,0,0,1,1.3-1.32c.59,0,1.17,0,1.76,0H62c1.87,0,3.75,0,5.62,0a1.26,1.26,0,0,1,1.33,1.3c0,1.06,0,2.11,0,3.16C68.9,68.59,68.93,69.31,68.91,70ZM77,47.62a.86.86,0,0,1,.72.34,1.11,1.11,0,0,1,.47,1c0,1.72,0,3.43,0,5.15a1.32,1.32,0,0,1-1.41,1.4c-2.15,0-4.3,0-6.46,0H67.36c-.34,0-.67,0-1,0A1.27,1.27,0,0,1,65,54.15c0-1.75,0-3.49,0-5.23a1.19,1.19,0,0,1,1.3-1.3c2.82,0,5.64,0,8.46,0ZM72.3,39.67h-2l3.86-6.62,1.71,2.86,2.38,3.76Z"/><path class="cls-2" d="M78.46,57.81Z"/><path class="cls-3" d="M10.73,49.94C11.9,48,13,46.06,14.25,44.15a3.3,3.3,0,0,0,.44-3,4,4,0,0,0-1.23-1.26,10.13,10.13,0,0,0-3.2-.21c-.41,0-.56-.09-.54-.55.06-2.1,0-2.1,2.15-2.1l3.91.05a8.11,8.11,0,0,0,1.82-.28,3.9,3.9,0,0,0,2.54-3.38c0-.26.05-.51.08-.76,0-1.43-.08-2.86,0-4.29a4.26,4.26,0,0,0-2.09-4.07,6.72,6.72,0,0,0-3.34-.42,17.25,17.25,0,0,1,1.78-2.56c.12-.14,7.22-.08,8.74-.09a3.93,3.93,0,0,0,4.11-4.12c0-1.62,0-3.24,0-4.86,0-.19-.13-.47.1-.56.76-.3,1.53-.57,2.31-.83.29-.09.23.2.27.35.64,2.44,1.89,3.41,4.39,3.42.57,0,3.76,0,4.79,0,1.49,0,3-.11,4.46,0a4.2,4.2,0,0,0,4.83-3.85,23.59,23.59,0,0,1,3.76,1.41c.41.18.11,5,.11,5.7,0,2.76,1,4.08,3.69,4.67,1,0,6.61,0,8.45,0a.61.61,0,0,1,.58.3c.63,1,2.42,4.34,3.06,4.83,1.52.36,2.25-.45,1.79-2-.32-.59-.65-1.17-1-1.75s-.66-1-1-1.55a4.13,4.13,0,0,0,2.89-4.34c0-1.31,0-2.62,0-3.94a6.12,6.12,0,0,0-.5-2.77,7.22,7.22,0,0,0-1.21-1.32,5.41,5.41,0,0,0-2.87-.7c-2.49,0-5,0-7.46,0l-2.93,0a7.32,7.32,0,0,1-4-.16c-.39-.11-3-.67-3.31-1.35a6.35,6.35,0,0,1-.06-2.51,5.75,5.75,0,0,0-.7-2.13,4,4,0,0,0-3.27-1.73c-3.55,0-7.09,0-10.64,0A3.89,3.89,0,0,0,32.1,4.74,15.09,15.09,0,0,0,32,7.51a.6.6,0,0,1-.52.68c-.91.27-1.8.6-2.68.93A.68.68,0,0,1,28,9a3.88,3.88,0,0,0-2.76-1c-1.56,0-9.56,0-10.45,0A3.87,3.87,0,0,0,11,11.9c0,.9,0,1.8-.05,2.69l0,3.1A4.16,4.16,0,0,0,13.43,21c-.52.82-1,1.61-1.53,2.43a.85.85,0,0,1-.86.48c-1.46,0-5.83,0-6.54.13a4.55,4.55,0,0,0-2.21,1.73,4.52,4.52,0,0,0-.57,2.5c0,1.43,0,2.87,0,4.3A4.58,4.58,0,0,0,3,36a5.42,5.42,0,0,0,2,1c.18,0,1.69.06,2.1.13s.11,1,.14,1.52c.07,1.22-.51,1.09-1.28,1a6.81,6.81,0,0,0-2.66.17,2.67,2.67,0,0,0-1.12,3.86c.91,1.57,3.53,5.93,3.9,6.55C7.58,52.13,9.48,52,10.73,49.94ZM57.08,13.36A1.28,1.28,0,0,1,58.45,12c3.39,0,6.78,0,10.17,0,1.27,0,1.71.51,1.61,2s0,3,0,4.52a1.26,1.26,0,0,1-1.31,1.39c-1.56,0-3.11,0-4.67,0a17.91,17.91,0,0,1-2.93,0c-1,0-2,.06-2.93,0a1.24,1.24,0,0,1-1.33-1.3C57,16.85,57.05,15.11,57.08,13.36Zm-21-9.26c.59,0,1.18,0,1.77,0,2.88,0,5.75,0,8.62,0,.84,0,1.22.44,1.33,1.35a21.53,21.53,0,0,1,0,3.11c0,.67,0,1.33,0,2A1.31,1.31,0,0,1,46.41,12c-.68,0-1.37,0-2.06,0H41.41c-1.82,0-3.64,0-5.45,0a1.24,1.24,0,0,1-1.29-1.34c0-1.1,0-2.2,0-3.3,0-.61-.06-1.23,0-1.85A1.32,1.32,0,0,1,36.09,4.1ZM13.61,12a1.19,1.19,0,0,1,1.25-1.26c.82,0,1.64,0,2.46,0,2.72,0,5.43,0,8.15,0,1,0,1.34.63,1.25,2,0,1,0,2,0,2.94,0,.51,0,1,0,1.53a1.32,1.32,0,0,1-1.41,1.39c-.51,0-1,0-1.53,0H20.87c-2,0-4,0-5.94,0a1.24,1.24,0,0,1-1.32-1.3c0-.95,0-1.9,0-2.85S13.59,12.8,13.61,12ZM5.11,34.22A1.12,1.12,0,0,1,4.36,33c0-1.7,0-3.39,0-5.09a1.3,1.3,0,0,1,1.38-1.42c2.23,0,4.47,0,6.7,0h3c1.61-.1,2,.3,2,1.87s0,3,0,4.46c0,1.09-.45,1.54-1.55,1.54l-7.92,0A8.56,8.56,0,0,1,5.11,34.22ZM6.78,46.27l-2.5-3.93h8L8.37,49C7.82,48,7.3,47.14,6.78,46.27Z"/><path class="cls-4" d="M59,35.76a20.93,20.93,0,0,0-3.84-6.94l-1.54-1.56a20.6,20.6,0,0,0-6.79-3.88l-2.32-.59a22,22,0,0,0-6.53.05,19.3,19.3,0,0,0-7.65,3.27,23.43,23.43,0,0,0-3.95,3.95,19,19,0,0,0-3.27,7.66A22,22,0,0,0,23,44.25l.59,2.31a20.55,20.55,0,0,0,3.88,6.8l1.56,1.54a21.08,21.08,0,0,0,7,3.85l2.31.5a19.93,19.93,0,0,0,8.13-.54,19.39,19.39,0,0,0,7.75-4.52c0-.06,0-.08.08-.08A19.42,19.42,0,0,0,59,46.24a20.13,20.13,0,0,0,.55-8.17C59.34,37.3,59.16,36.53,59,35.76ZM49.56,54.43a14.23,14.23,0,0,1-8.3,2.34,10.11,10.11,0,0,1-2.8-.23A14.69,14.69,0,0,1,31.07,53a7.62,7.62,0,0,1-1.71-1.69A14.31,14.31,0,0,1,25.77,44a7.82,7.82,0,0,1-.27-2.64,15.16,15.16,0,0,1,5.76-12.53,14.73,14.73,0,0,1,10.31-3.53,7.53,7.53,0,0,1,2.63.26,14.38,14.38,0,0,1,7.41,3.59,8.3,8.3,0,0,1,1.69,1.71,14.67,14.67,0,0,1,3.49,7.39A9.77,9.77,0,0,1,57,41,15.34,15.34,0,0,1,49.56,54.43Z"/><path class="cls-5" d="M46.81,34.4a1.72,1.72,0,0,0-1.55.81c-.83,1.13-1.69,2.23-2.55,3.35q-2,2.67-4,5.35c-.24.33-.41.29-.63,0s-.31-.34-.46-.51-.55-.53-.85-.76A1.3,1.3,0,0,0,35,44.45c.18.24.39.46.59.69a14.71,14.71,0,0,1,1.72,1.72c1.26,1.07,1.79,1,2.8-.33q3.59-4.78,7.18-9.56a3.57,3.57,0,0,0,.64-1.22A1.63,1.63,0,0,0,46.81,34.4Z"/></svg>