<svg id="Capa_1" data-name="Capa 1" xmlns="http://www.w3.org/2000/svg" xmlns:xlink="http://www.w3.org/1999/xlink" viewBox="0 0 82.5 82"><defs><style>.cls-1{fill:url(#Degradado_sin_nombre_30);}.cls-2{fill:url(#Degradado_sin_nombre_30-2);}.cls-3{fill:url(#Degradado_sin_nombre_30-3);}.cls-4{fill:url(#Degradado_sin_nombre_30-4);}.cls-5{fill:url(#Degradado_sin_nombre_30-5);}.cls-6{fill:url(#Degradado_sin_nombre_30-6);}</style><linearGradient id="Degradado_sin_nombre_30" x1="-3.04" y1="14.9" x2="37.43" y2="63.37" gradientUnits="userSpaceOnUse"><stop offset="0" stop-color="#ef0b51"/><stop offset="1" stop-color="#8d0068"/></linearGradient><linearGradient id="Degradado_sin_nombre_30-2" x1="28.77" y1="-11.66" x2="69.24" y2="36.81" xlink:href="#Degradado_sin_nombre_30"/><linearGradient id="Degradado_sin_nombre_30-3" x1="-2.41" y1="14.37" x2="38.06" y2="62.84" xlink:href="#Degradado_sin_nombre_30"/><linearGradient id="Degradado_sin_nombre_30-4" x1="1.11" y1="11.43" x2="41.58" y2="59.9" xlink:href="#Degradado_sin_nombre_30"/><linearGradient id="Degradado_sin_nombre_30-5" x1="28.76" y1="-11.66" x2="69.23" y2="36.81" xlink:href="#Degradado_sin_nombre_30"/><linearGradient id="Degradado_sin_nombre_30-6" x1="28.77" y1="-11.67" x2="69.24" y2="36.8" xlink:href="#Degradado_sin_nombre_30"/></defs><path class="cls-1" d="M67.62,45.05c-1.19,0-1.2,0-1.2,1.19V76.81c0,1.26,0,1.27-1.26,1.27h-56c-.28,0-.56,0-.85,0a3.71,3.71,0,0,1-3.72-3.9,3.82,3.82,0,0,1,3.89-3.79c.8,0,1.6,0,2.4,0a1.48,1.48,0,0,0,1.61-1.51c0-.3,0-.61,0-.92V30.63c0-1.17,0-1.17,1.14-1.17H31.79c2.06,0,1.73.16,1.76-1.79,0-1.06,0-1.06-1.08-1.06H14.2c-2,0-1.72.3-1.73-1.7,0-2.35,0-4.69,0-7,0-1.26-.52-1.79-1.77-1.87a13.48,13.48,0,0,0-3.7.18,6.71,6.71,0,0,0-5.23,5.22v54.2A7,7,0,0,0,7,80.85H68.49a2.48,2.48,0,0,0,.79-2.16q0-16,0-32C69.28,44.84,69.4,45.06,67.62,45.05ZM4.53,23.38A4.89,4.89,0,0,1,5,20.83a4.26,4.26,0,0,1,4.14-2c.33.05.46.19.46.5V66.43c0,1.06,0,1-1,1.08a7.11,7.11,0,0,0-3.48.9c-.39.23-.56.16-.54-.31,0-.15,0-.31,0-.46Z"/><path class="cls-2" d="M81.07,20.06a1.28,1.28,0,0,0-1.28-1.37A21.47,21.47,0,0,0,77,18.62c-2,0-2,0-2.8-1.86a.77.77,0,0,1,.22-1c.93-.9,1.85-1.81,2.75-2.73a1.44,1.44,0,0,0,0-2.24C75.43,9,73.65,7.2,71.85,5.42a1.43,1.43,0,0,0-2.24,0C69,6,68.33,6.68,67.69,7.32c-1.27,1.27-1.26,1.24-3,.61A1,1,0,0,1,64,6.79a30.48,30.48,0,0,0-.06-3.94,1.29,1.29,0,0,0-1.48-1.32c-1.29,0-2.58,0-3.87,0H54.93c-1.23,0-1.73.49-1.77,1.72,0,.8,0,1.6,0,2.4,0,2,0,2-1.82,2.75a.76.76,0,0,1-1-.19c-.89-.93-1.81-1.84-2.73-2.74a1.45,1.45,0,0,0-2.3,0Q42.62,8.07,40,10.74a1.45,1.45,0,0,0,0,2.35,17.28,17.28,0,0,0,1.88,1.85,2,2,0,0,1,.62,2.94c-.3.53-.55.77-1.15.75-1.24,0-2.48,0-3.72,0S36,19.14,36,20.24q-.07,3.78,0,7.58c0,1.12.6,1.59,1.75,1.63.8,0,1.6,0,2.4,0,2,0,2,0,2.76,1.81a.8.8,0,0,1-.23,1.07c-.93.89-1.84,1.8-2.74,2.73a1.38,1.38,0,0,0,0,2.22q2.67,2.7,5.37,5.36a1.41,1.41,0,0,0,2.23,0,15.55,15.55,0,0,0,1.85-1.87,2,2,0,0,1,3-.64c.5.29.74.53.73,1.1,0,1.21,0,2.43,0,3.64s.51,1.63,1.65,1.74c.51,0,1,0,1.54,0,1.89,0,3.77,0,5.65,0,1.47,0,1.93-.51,2-2,0-.78,0-1.55,0-2.33,0-1.89,0-1.87,1.77-2.61a.85.85,0,0,1,1.09.22c.9.92,1.81,1.84,2.75,2.73a1.43,1.43,0,0,0,2.24,0c1.8-1.78,3.59-3.56,5.37-5.36a1.42,1.42,0,0,0,0-2.23,21.53,21.53,0,0,0-2-2,1.88,1.88,0,0,1-.6-2.79c.35-.6.62-.89,1.32-.86,1.16.06,2.32,0,3.48,0s1.67-.52,1.67-1.42Q81.1,24,81.07,20.06Zm-3.59,6.55c-1.13,0-2.27,0-3.4,0a1.45,1.45,0,0,0-1.56,1.12A17.17,17.17,0,0,1,71,31.29a1.44,1.44,0,0,0,.29,1.89c.85.86,1.7,1.73,2.58,2.57.35.33.34.54,0,.87-.94.89-1.85,1.8-2.74,2.73-.33.35-.55.34-.87,0-.81-.84-1.63-1.66-2.46-2.47a1.53,1.53,0,0,0-2.16-.3,16.13,16.13,0,0,1-3.21,1.34c-1.05.31-1.3.67-1.3,1.79s0,2.27,0,3.41c0,.5-.17.69-.67.68-1.27,0-2.53,0-3.8,0-.55,0-.72-.21-.7-.73s0-1.19,0-1.79h0V39.43A1.37,1.37,0,0,0,55,38a21.85,21.85,0,0,1-3.78-1.57,1.43,1.43,0,0,0-1.82.35c-.82.82-1.67,1.62-2.45,2.47-.42.45-.66.38-1,0-.81-.87-1.64-1.72-2.52-2.52-.5-.45-.42-.73,0-1.15.8-.73,1.55-1.51,2.31-2.29A1.5,1.5,0,0,0,46,31.15a16.81,16.81,0,0,1-1.36-3.28A1.47,1.47,0,0,0,43,26.61c-1.14,0-2.27,0-3.41,0-.55,0-.79-.15-.78-.74,0-1.24,0-2.48,0-3.72,0-.53.17-.73.71-.72,1.19,0,2.38,0,3.56,0a1.43,1.43,0,0,0,1.55-1.12,18.41,18.41,0,0,1,1.44-3.5,1.45,1.45,0,0,0-.32-2c-.81-.84-1.63-1.66-2.47-2.46-.37-.34-.38-.57,0-.93.92-.87,1.81-1.76,2.68-2.68.35-.36.57-.39.93,0,.77.83,1.59,1.62,2.39,2.42a1.48,1.48,0,0,0,2.14.36,19.56,19.56,0,0,1,3.35-1.39c.95-.29,1.22-.7,1.23-1.71s0-2.22,0-3.33c0-.53.19-.74.72-.73,1.24,0,2.48,0,3.72,0,.59,0,.75.27.74.81,0,1.13,0,2.27,0,3.4a1.42,1.42,0,0,0,1.13,1.55,18.68,18.68,0,0,1,3.5,1.44,1.42,1.42,0,0,0,2-.32c.83-.81,1.66-1.63,2.46-2.47.33-.34.55-.43.92,0,.89.94,1.8,1.85,2.74,2.74.36.34.31.55,0,.87-.82.78-1.62,1.59-2.41,2.4s-.88,1.24-.36,2.2a18.75,18.75,0,0,1,1.36,3.28c.3,1,.67,1.23,1.69,1.24s2.22,0,3.33,0c.58,0,.77.22.76.78,0,1.21,0,2.42,0,3.64C78.27,26.43,78.05,26.63,77.48,26.61Z"/><path class="cls-3" d="M43.31,62.24c-3,0-6.09,0-9.13,0-.46,0-.65-.18-.64-.64,0-.93,0-1.86,0-2.78,0-1.33-.5-1.85-1.8-1.85H16.66c-1.26,0-1.79.54-1.79,1.8v9.83c0,1.27.52,1.78,1.79,1.78H31.75c1.34,0,1.79-.47,1.8-1.83,0-.9,0-1.8,0-2.71,0-.51.15-.74.7-.74q4.53,0,9,0c.5,0,.7.16.69.67,0,1,0,1.91,0,2.86,0,1.27.47,1.74,1.72,1.74H60.86c1.25,0,1.78-.54,1.79-1.8,0-3.28,0-6.55,0-9.83,0-1.24-.55-1.77-1.81-1.78-1.78,0-3.56,0-5.34,0-.57,0-.77-.2-.76-.76,0-1.73,0-3.46,0-5.19,0-2.28.3-1.9-2-2-.75,0-.92.27-.91,1,0,2,0,4,0,6,0,.77-.25,1-1,.95-1.67,0-3.35,0-5,0-1.45,0-1.9.45-1.91,1.88,0,.9,0,1.8,0,2.7C44,62,43.82,62.24,43.31,62.24ZM30.7,66.68c0,.65-.23.85-.86.84-1.88,0-3.76,0-5.65,0s-3.76,0-5.64,0c-.59,0-.83-.16-.82-.79q0-3,0-6.11c0-.61.22-.79.81-.79q5.66,0,11.29,0c.62,0,.88.17.87.83Q30.66,63.66,30.7,66.68Zm17-6.86c1.88,0,3.77,0,5.65,0s3.76,0,5.65,0c.59,0,.82.18.81.8q0,3,0,6.11c0,.63-.24.79-.83.78-3.76,0-7.52,0-11.29,0-.63,0-.87-.19-.87-.84,0-2,0-4,0-6C46.79,60,47.07,59.81,47.68,59.82Z"/><path class="cls-4" d="M33.55,35.18c0-1.56-.46-2-2-2H16.74c-1.27,0-1.86.53-1.86,1.66q0,5.1,0,10.21a1.4,1.4,0,0,0,1.37,1.56,6,6,0,0,0,.85.05H31.33a6.06,6.06,0,0,0,.85-.05A1.39,1.39,0,0,0,33.54,45c0-1,0-2,0-2.94,0-.66.22-.86.85-.82.82,0,1.65,0,2.47,0,2,0,2,0,2-2,0-.63-.26-.8-.83-.79-1.19,0-2.37,0-3.56,0-.65,0-.95-.18-.9-.88S33.55,36,33.55,35.18ZM30.7,43c0,.55-.17.77-.76.77-3.82,0-7.63,0-11.45,0-.58,0-.77-.2-.76-.76,0-2.09,0-4.18,0-6.27,0-.64.25-.79.83-.78,1.88,0,3.76,0,5.65,0s3.82,0,5.72,0c.58,0,.77.2.77.77C30.67,38.85,30.68,40.94,30.7,43Z"/><path class="cls-5" d="M58.56,12.06a12,12,0,1,0,12,12A11.91,11.91,0,0,0,58.56,12.06Zm0,21.08A9.11,9.11,0,1,1,67.68,24,9,9,0,0,1,58.56,33.14Z"/><path class="cls-6" d="M58.58,18.7A5.37,5.37,0,0,0,53.17,24a5.49,5.49,0,0,0,5.42,5.44A5.36,5.36,0,0,0,63.9,24,5.22,5.22,0,0,0,58.58,18.7Zm0,7.9A2.56,2.56,0,1,1,61.12,24,2.65,2.65,0,0,1,58.56,26.6Z"/></svg>