<svg id="Capa_1" data-name="Capa 1" xmlns="http://www.w3.org/2000/svg" xmlns:xlink="http://www.w3.org/1999/xlink" viewBox="0 0 82.5 82"><defs><style>.cls-1{fill:url(#Degradado_sin_nombre_30);}.cls-2{fill:url(#Degradado_sin_nombre_30-2);}.cls-3{fill:url(#Degradado_sin_nombre_30-3);}.cls-4{fill:url(#Degradado_sin_nombre_30-4);}</style><linearGradient id="Degradado_sin_nombre_30" x1="0.87" y1="41" x2="81.63" y2="41" gradientUnits="userSpaceOnUse"><stop offset="0" stop-color="#ef0b51"/><stop offset="1" stop-color="#8d0068"/></linearGradient><linearGradient id="Degradado_sin_nombre_30-2" x1="33.31" y1="17.37" x2="60.71" y2="17.37" xlink:href="#Degradado_sin_nombre_30"/><linearGradient id="Degradado_sin_nombre_30-3" x1="7.72" y1="34.3" x2="15.13" y2="34.3" xlink:href="#Degradado_sin_nombre_30"/><linearGradient id="Degradado_sin_nombre_30-4" x1="67.36" y1="35.25" x2="74.76" y2="35.25" xlink:href="#Degradado_sin_nombre_30"/></defs><path class="cls-1" d="M49.31,79.11a6.59,6.59,0,0,1-3-.69,6.42,6.42,0,0,1-2.13-2.12l-.6-1.59-.09-1.19.06-.81.11-.32a7.93,7.93,0,0,1,.75-1.73,7.1,7.1,0,0,1,1.94-1.78,2.45,2.45,0,0,1,.3-.11,1.28,1.28,0,0,0,1.07-1.65,25.63,25.63,0,0,0,0-3.16V60.8a26.8,26.8,0,0,0,0-3.23V54.41a26.63,26.63,0,0,0,0-3.22V47.85c0-.18,0-.36,0-.53,0-.67,0-1.06-.28-1.36a1.1,1.1,0,0,0-.8-.26l-.65,0c-.47,0-1,0-1.55,0s-1.09,0-1.64,0-1,0-1.56,0-1.09,0-1.63,0-1,0-1.56,0-1.09,0-1.64,0c-.2,0-.41,0-.58,0a1.08,1.08,0,0,0-.79.27c-.3.3-.3.7-.29,1.36,0,.17,0,.35,0,.53l0,.21a24.25,24.25,0,0,0,0,3.19,24.25,24.25,0,0,0,0,3.19,24.4,24.4,0,0,0,0,3.2,24.25,24.25,0,0,0,0,3.19,24.25,24.25,0,0,0,0,3.19,24.64,24.64,0,0,0,0,3.1,1.29,1.29,0,0,0,1.07,1.65,2.52,2.52,0,0,1,.33.13,7.31,7.31,0,0,1,1.94,1.79,10.59,10.59,0,0,1,.77,1.79l0,.09.08,1-.08,1.1-.71,1.79a6.71,6.71,0,0,1-2,1.93,6.46,6.46,0,0,1-2.9.68,7,7,0,0,1-2.93-1,10.39,10.39,0,0,1-1.47-1.62,6.84,6.84,0,0,1-.74-2.9A6.65,6.65,0,0,1,29,70.8a10.15,10.15,0,0,1,1.44-1.55l.31-.18a3.07,3.07,0,0,1,.69-.33,1.25,1.25,0,0,0,1-1.63V64a29,29,0,0,0,0-3.23V57.6a28.82,28.82,0,0,0,0-3.22V51.22a29,29,0,0,0,0-3.23c0-.3,0-.58,0-.8,0-.6,0-1-.22-1.24a1,1,0,0,0-.79-.27l-.47,0c-.22,0-.51,0-.86,0-.5,0-1,0-1.58,0s-1.09,0-1.64,0H26c-.73,0-1.46,0-2.19,0h0a1,1,0,0,0-.73.25,1.06,1.06,0,0,0-.25.77q0,1.66,0,3.33v2.74c0,1.54,0,3.09,0,4.63,0,1.92-.14,2.06-2,2.1l-.29,0h-1l-2.6,0h0a1.08,1.08,0,0,0-1.08.76,5.45,5.45,0,0,1-5,3.55,5.7,5.7,0,0,1-5-3.21c-.87-3.26-.29-5.07,2.22-6.92a7.49,7.49,0,0,1,2.87-.78,7.13,7.13,0,0,1,2.89.92l1.12,1,.25.36a3.65,3.65,0,0,1,.57,1A1.23,1.23,0,0,0,17,57.2a1.84,1.84,0,0,0,.39,0h.55l1.58,0h0a1,1,0,0,0,.77-.27,1,1,0,0,0,.23-.73c0-.42,0-.83,0-1.25V54.4a24.85,24.85,0,0,0,0-3.23,23.94,23.94,0,0,0,0-3.17v-.35q0-.42,0-.84a1.06,1.06,0,0,0-.22-.84,1,1,0,0,0-.76-.29H19.4c-.5,0-1,0-1.49,0h-.64c-.5,0-1,0-1.59,0s-1.08,0-1.63,0-1,0-1.56,0-1.09,0-1.63,0L7.72,45.6a10.7,10.7,0,0,1-2.84-1,.76.76,0,0,0-.41-.27A8.39,8.39,0,0,1,1.78,41a9.79,9.79,0,0,1-.55-1.88c-.06-.26-.12-.52-.19-.79L.87,35.29l.55-3.11.24-.64L2,30.65l.82-1.5A14.41,14.41,0,0,1,8,24.36,15.49,15.49,0,0,1,14,22.87a1.44,1.44,0,0,0,.4.06A1.08,1.08,0,0,0,15.48,22a7.67,7.67,0,0,1,.77-1.78c.11-.21.22-.42.32-.63l1.1-1.4,1.74-1.45.64-.35.71-.41a14.14,14.14,0,0,1,3-.84c.52-.05,1-.08,1.48-.08a10.31,10.31,0,0,1,1.51.11.84.84,0,0,0,.27,0,.8.8,0,0,0,.72-.53l.77-1.51.38-.55c.3-.44.61-.89.93-1.32a21.83,21.83,0,0,1,7.08-6A25.09,25.09,0,0,1,43,3.2l3.14-.31,3.12.16,3.12.63L53.39,4l2,.83,3.15,1.8.71.54,2.35,2.06a5.41,5.41,0,0,0,1,1,25.62,25.62,0,0,1,3.6,6l.94,3.14.09.62a24.3,24.3,0,0,1,.35,3.8.86.86,0,0,0,.91.95c.78.07,1.49.15,2.21.23l.86.1a14.76,14.76,0,0,1,6.1,3.33l.74.78a14.33,14.33,0,0,1,3,6.13,20.89,20.89,0,0,1,.25,3.06,9.79,9.79,0,0,1-.82,2.93l-.26.49a11.42,11.42,0,0,1-2.41,2.55l-.39.21a9.51,9.51,0,0,1-3,1l-3.12.08c-.5,0-1,0-1.58,0s-1.09,0-1.63,0-1,0-1.57,0-1.09,0-1.63,0h-.26l-.73,0H64c-.74,0-1.33,0-1.69.4s-.32.93-.22,2a21,21,0,0,0,0,3.17,21.36,21.36,0,0,0,0,3.2v.48c0,.39,0,.78,0,1.17a1.05,1.05,0,0,0,.22.8,1,1,0,0,0,.78.29h.11c.49,0,1,0,1.48,0h.79l.31,0a1,1,0,0,0,1-.75,4.66,4.66,0,0,1,.67-1.26l.27-.4,1.19-1a7.21,7.21,0,0,1,2.83-.87,7.08,7.08,0,0,1,2.89.81,5.9,5.9,0,0,1,1.85,1.88,5.4,5.4,0,0,1-4.77,8.22,5.44,5.44,0,0,1-4.92-3.55,1.05,1.05,0,0,0-1-.77c-.92,0-1.78,0-2.65.05l-1,0-.33,0-.8,0a1.15,1.15,0,0,1-1.19-1.09c0-.18,0-.36,0-.54V55.42c0-2.9,0-5.81,0-8.72a1,1,0,0,0-.25-.77.88.88,0,0,0-.67-.25c-.79,0-1.53,0-2.26,0h-.89c-.5,0-1,0-1.59,0s-1.09,0-1.63,0c-.31,0-.58,0-.81,0l-.47,0a1,1,0,0,0-.8.27c-.27.28-.25.64-.22,1.22,0,.23,0,.51,0,.86a26.64,26.64,0,0,0,0,3.22,24.25,24.25,0,0,0,0,3.19,24.4,24.4,0,0,0,0,3.2,24.25,24.25,0,0,0,0,3.19,24.25,24.25,0,0,0,0,3.19,24.25,24.25,0,0,0,0,3.19h0a.55.55,0,0,0,0,.09,1.06,1.06,0,0,0,.63,1.3c.33.14.66.3,1,.47l.38.18a10.73,10.73,0,0,1,1.47,1.61,6.6,6.6,0,0,1,.78,2.73,6.86,6.86,0,0,1-.79,2.92,11.06,11.06,0,0,1-1.49,1.6A7.58,7.58,0,0,1,49.31,79.11Zm-.38-8.45a3,3,0,1,0,3,3.06,2.94,2.94,0,0,0-.85-2.12A3,3,0,0,0,49,70.66ZM10.78,55.34a3,3,0,0,0-3,3,3,3,0,0,0,6,0,3,3,0,0,0-3-3Zm3.15-30.08a10.42,10.42,0,0,0-2.46.29A10.9,10.9,0,0,0,3.33,37.9a5.86,5.86,0,0,0,6.31,5.47c4.83,0,9.58,0,14.34,0l17.36,0H73.05c.36,0,.71,0,1.07,0a5.46,5.46,0,0,0,5.16-5.56A10.82,10.82,0,0,0,68.55,27.18a10.56,10.56,0,0,0-1.77.14,2.42,2.42,0,0,1-.45,0,1.19,1.19,0,0,1-.9-.31,1.72,1.72,0,0,1-.32-1.19A24.93,24.93,0,0,0,65,21,18.6,18.6,0,0,0,47,5.26h-.66c-7.86.3-13.55,4.13-16.91,11.36-.49,1-.78,1.22-1.24,1.22a3.72,3.72,0,0,1-1-.16,8.7,8.7,0,0,0-2.2-.31,6.75,6.75,0,0,0-1.69.21A7.54,7.54,0,0,0,17.39,24c-.22,1.2-.62,1.41-1.38,1.41-.16,0-.34,0-.54,0A11.59,11.59,0,0,0,13.93,25.26Z"/><path class="cls-2" d="M59.61,25a1.47,1.47,0,0,1-.44-.08,1.16,1.16,0,0,1-.77-1.18,12.13,12.13,0,0,0-.72-3.92,11.9,11.9,0,0,0-10.43-7.77h-.6a11.8,11.8,0,0,0-10.71,6.71,10.11,10.11,0,0,1-.49.94,1.19,1.19,0,0,1-1,.63,1.16,1.16,0,0,1-1.05-1.62,11.72,11.72,0,0,1,2.12-3.67c3-3.54,6.65-5.34,10.7-5.34a15.7,15.7,0,0,1,3.54.43c5.7,1.33,9.3,5,10.71,11a7,7,0,0,1,.21,2c.07.75,0,1.17-.26,1.49a1.08,1.08,0,0,1-.81.39Z"/><path class="cls-3" d="M9.05,38.86A1.2,1.2,0,0,1,7.94,38a5.54,5.54,0,0,1-.15-.77c0-.28,0-.57-.06-.8v-.23a6.33,6.33,0,0,1,6-6.45h0a1.23,1.23,0,0,1,1.38,1.09A1.14,1.14,0,0,1,14,32a4,4,0,0,0-3.89,3.09,3.92,3.92,0,0,0-.05,1.55,7.4,7.4,0,0,1,.08,1,1.14,1.14,0,0,1-1,1.16Z"/><path class="cls-4" d="M73.6,38.86a1.25,1.25,0,0,1-1.13-1.07c-.55-2.61-1.37-3.4-4-3.85a1.17,1.17,0,0,1-1.08-1.17,1.2,1.2,0,0,1,1.22-1.12h.17a6.35,6.35,0,0,1,6,5.9,1.17,1.17,0,0,1-1,1.3Z"/></svg>