<svg id="Capa_1" data-name="Capa 1" xmlns="http://www.w3.org/2000/svg" xmlns:xlink="http://www.w3.org/1999/xlink" viewBox="0 0 82.5 82"><defs><style>.cls-1{fill:url(#Degradado_sin_nombre_30);}.cls-2{fill:url(#Degradado_sin_nombre_30-2);}.cls-3{fill:url(#Degradado_sin_nombre_30-3);}.cls-4{fill:url(#Degradado_sin_nombre_30-4);}.cls-5{fill:url(#Degradado_sin_nombre_30-5);}.cls-6{fill:url(#Degradado_sin_nombre_30-6);}.cls-7{fill:url(#Degradado_sin_nombre_30-7);}.cls-8{fill:url(#Degradado_sin_nombre_30-8);}</style><linearGradient id="Degradado_sin_nombre_30" x1="54.61" y1="11.9" x2="77.68" y2="32.71" gradientUnits="userSpaceOnUse"><stop offset="0" stop-color="#ef0b51"/><stop offset="1" stop-color="#8d0068"/></linearGradient><linearGradient id="Degradado_sin_nombre_30-2" x1="2.99" y1="5.14" x2="58.28" y2="55.03" xlink:href="#Degradado_sin_nombre_30"/><linearGradient id="Degradado_sin_nombre_30-3" x1="-14.34" y1="24.35" x2="38.61" y2="72.12" xlink:href="#Degradado_sin_nombre_30"/><linearGradient id="Degradado_sin_nombre_30-4" x1="56.47" y1="49.09" x2="63.02" y2="55" xlink:href="#Degradado_sin_nombre_30"/><linearGradient id="Degradado_sin_nombre_30-5" x1="25.02" y1="25.52" x2="25.59" y2="26.03" xlink:href="#Degradado_sin_nombre_30"/><linearGradient id="Degradado_sin_nombre_30-6" x1="-10.84" y1="20.47" x2="44.45" y2="70.36" xlink:href="#Degradado_sin_nombre_30"/><linearGradient id="Degradado_sin_nombre_30-7" x1="2.66" y1="5.51" x2="57.96" y2="55.39" xlink:href="#Degradado_sin_nombre_30"/><linearGradient id="Degradado_sin_nombre_30-8" x1="-1.38" y1="9.98" x2="53.92" y2="59.87" xlink:href="#Degradado_sin_nombre_30"/></defs><polygon class="cls-1" points="66.15 22.31 66.15 22.31 66.15 22.3 66.15 22.31"/><path class="cls-2" d="M82.16,39.89c-.13-.53-.31-1-.47-1.57a3.81,3.81,0,0,1-.37-.76l-.2-.33L81,37.06,81,37l-1-1.29-.36-.36-1.09-.9-.43-.28-.13-.1a15.44,15.44,0,0,0-3.75-1.57c-.41,0-.31-.31-.36-.54-.16-.57-.32-1.13-.49-1.7l-.46-1.3-.24-.66a1.08,1.08,0,0,1-.18-.46l-.08-.18,0-.13-.87-1.88-.13-.27c-.13-.24-.26-.48-.38-.73a6.89,6.89,0,0,1-.64-1.12c-.12-.2-.23-.4-.35-.59L69.41,22c-.71-.95-1.41-1.91-2.11-2.87l-1.24-1.41-1.35-1.38a.2.2,0,0,1-.14-.13L63.22,15l-2.93-2.26a1.84,1.84,0,0,1-.57-.38,4,4,0,0,1-.85-.55l-2.66-1.44L53.5,9.17l-1.09-.4-2.93-.89-.18,0-1-.26h-.18l-1.84-.33A38.81,38.81,0,0,0,39.63,7c-.8,0-1.6.11-2.41.17L35,7.49l-.19,0-.27.07-.18,0L32.74,8l-.62.15-1.39.42-.1,0-1.74.65-2.46,1.09-3,1.7,0,0a.72.72,0,0,1-.32.2h0l-.93.63-2.8,2.18h0l-1.42,1.29-.09.09-1.11,1.16-.25.26c-1.11,1.27-2.13,2.6-3.11,4l-2,3.44a.28.28,0,0,1-.11.22l-.53,1.14v0l0,0A39.56,39.56,0,0,0,9,31.32a1.86,1.86,0,0,0-.1.39c-.05.55-.31.85-.89.84l-.17,0a.72.72,0,0,1-.47.16c-.09.1-.23.1-.35.13a15.22,15.22,0,0,0-2.8,1.39l-1.4,1.13c0,.08-.09.17-.19.2a10.63,10.63,0,0,0-1.94,3c-.28.87-.44,1.77-.64,2.65v2.2L.4,45.15l.48,1.49.12.27.54,1,.92,1.18.45.47,1.2.94c.08,0,.08.08.09.14a7.16,7.16,0,0,1,1.37.72,21.3,21.3,0,0,0,3.1,1l.19,0,.36.07.29,0a4.68,4.68,0,0,0,1.54,0l.17,0,.2,0,.62-.13.2,0,.18,0c.11-.15.41,0,.44-.25-.09,0-.09-.13-.08-.22a.13.13,0,0,1-.08-.15.34.34,0,0,1-.1-.27.19.19,0,0,1-.08-.19,1.31,1.31,0,0,1-.2-.54.2.2,0,0,1-.07-.19l0-.08a20.79,20.79,0,0,1-.79-2.66l0-.18a1.73,1.73,0,0,1-.16-.74l-.05-.16a15.3,15.3,0,0,1-.42-2.86l0-.17a1,1,0,0,1-.05-.46c0-.24,0-.48,0-.72a7.19,7.19,0,0,1-.05-1.39,7.84,7.84,0,0,1,0-1.37,5.7,5.7,0,0,1,.07-1.37c0-.19,0-.37,0-.55l.06-.47,0-.35a5.29,5.29,0,0,1,.15-1.12l0-.16a7.32,7.32,0,0,1,.27-1.47,7.15,7.15,0,0,1,.31-1.37c.13-.46.27-.92.4-1.39a3.48,3.48,0,0,1,.32-1,.86.86,0,0,1,.17-.46.31.31,0,0,1,.1-.27.08.08,0,0,1,0-.08l.18-.47a20.86,20.86,0,0,1,1.54-3.28A22.83,22.83,0,0,1,16.78,22a9.18,9.18,0,0,1,1-1.29l.15-.19a25.24,25.24,0,0,1,4-3.84.25.25,0,0,1,.2-.17,10.63,10.63,0,0,1,1.36-1A15,15,0,0,1,25.73,14a4.45,4.45,0,0,1,1-.56l.64-.34a11.44,11.44,0,0,1,1.74-.81.05.05,0,0,1,.08,0,24,24,0,0,1,5.23-1.74h.17A17.36,17.36,0,0,1,37.22,10l.28,0A26.31,26.31,0,0,1,43,9.76c.1,0,.22,0,.29.09v0h0v0a3.42,3.42,0,0,1,1.46.06,3,3,0,0,1,1,.16l.27,0,.27.07h.19a11.68,11.68,0,0,1,2.92.73,3.16,3.16,0,0,1,1.38.34,4.38,4.38,0,0,1,1.63.66h.2c.06,0,.08,0,.1.07a.41.41,0,0,1,.36.11l.56.24a.74.74,0,0,1,.44.2l.19.08a.38.38,0,0,1,.27.12l.11,0,.26.15a7,7,0,0,1,1.12.58.33.33,0,0,1,.25.15,10.54,10.54,0,0,1,1.55.92,1.5,1.5,0,0,1,.56.44,2.17,2.17,0,0,1,.88.54,4.18,4.18,0,0,1,.95.72l.34.26a24.38,24.38,0,0,1,3.87,3.73l.19.21a7.94,7.94,0,0,1,1,1.24,2.24,2.24,0,0,1,.45.61.51.51,0,0,1,.2.26h0a3,3,0,0,1,.2.29.52.52,0,0,1,.2.26A21.63,21.63,0,0,1,68.47,26a2.83,2.83,0,0,1,.37.71c.1.22.21.45.32.67s.09.16.13.25l0,.11a.8.8,0,0,1,.2.46,28.62,28.62,0,0,1,2,6.33c.07.35.11.72.17,1.07a2.59,2.59,0,0,1,.1.83,18.46,18.46,0,0,1,.26,2.47c0,.27,0,.55,0,.82v1.37c0,.31,0,.61,0,.92a13.84,13.84,0,0,1-.17,1.82c0,.1,0,.19,0,.28a.94.94,0,0,1-.17.65V45a15.07,15.07,0,0,1-.59,3.19c0,.12,0,.28-.13.37l0,.18A29,29,0,0,1,66.59,58a1.65,1.65,0,0,1-.43.61l-.21.28A26.39,26.39,0,0,1,62.25,63a13.88,13.88,0,0,1-1.49,1.27l-.38.31a7,7,0,0,1-1.19.89,1.51,1.51,0,0,1-.53.36,2.53,2.53,0,0,1-.7.47,19.26,19.26,0,0,1-3.26,1.82.17.17,0,0,1-.18.09.2.2,0,0,1-.19.09,8.64,8.64,0,0,1-1.65.71,9.58,9.58,0,0,1-1.82.64,2.26,2.26,0,0,1-1.38-.18l-1.37-.1-.73,0c-.64.12-1.29.16-1.93.31a4.71,4.71,0,0,0-1.45.59l-.1.1a3.55,3.55,0,0,0-.74,2.47l0,.45a.2.2,0,0,1,.06.19l0,.18a2.46,2.46,0,0,0,2.32,1.78,9.52,9.52,0,0,0,3.53,0c.24-.07.48-.18.72-.27a4.65,4.65,0,0,0,.92-.85,8.43,8.43,0,0,1,.92-1.73.67.67,0,0,1,.39-.35L55,71.14l2.63-1.31.3-.17.27-.16c1.24-.76,2.45-1.56,3.61-2.42l1.43-1.14L66,63.28a1.07,1.07,0,0,1,.35-.38l1-1.18c0-.06,0-.08.07-.09.7-1,1.39-1.9,2.08-2.86.17-.26.34-.52.5-.79s.29-.48.44-.71l1.13-2.13c.34-.8.69-1.6,1-2.41a.35.35,0,0,1,.3-.22,11,11,0,0,0,1.68-.38l2.21-.85a13.83,13.83,0,0,0,2.89-2,10.66,10.66,0,0,0,2-2.91l.41-1.19A11.62,11.62,0,0,0,82.16,39.89Z"/><polygon class="cls-3" points="26.17 60.89 26.16 60.89 26.16 60.89 26.17 60.89"/><polygon class="cls-4" points="59.74 52.05 59.74 52.04 59.75 52.04 59.74 52.05"/><polygon class="cls-5" points="25.3 25.77 25.3 25.77 25.3 25.77 25.3 25.77"/><path class="cls-6" d="M39.71,66.17h0c.08-.07.08-.11.06-.13A.15.15,0,0,0,39.71,66.17Z"/><path class="cls-7" d="M44.91,65.84a28.33,28.33,0,0,0,7.32-2.18,2.15,2.15,0,0,1,.63-.3,4.39,4.39,0,0,1,.88-.47,5,5,0,0,1,.92-.53,35.21,35.21,0,0,0,3-2.15l0,0L59.08,59l.07-.07,1.23-1.27.17-.19c.74-.89,1.44-1.8,2.11-2.73a1.87,1.87,0,0,1,.36-.55l.51-.85a1.35,1.35,0,0,1,.31-.53A36.75,36.75,0,0,0,65.51,49a4.72,4.72,0,0,1,.36-1.1c0-.07,0-.15.06-.19l.31-1.18c.12-.55.24-1.1.35-1.65a1,1,0,0,1,.09-.55c.09-1,.19-2,.28-2.92,0-.12,0-.25,0-.37V39.51l-.27-2.93a1.15,1.15,0,0,1-.1-.55L66,33.38l-.12-.45a32.63,32.63,0,0,0-1.65-4c-.2-.4-.42-.8-.63-1.2a.19.19,0,0,1-.1-.18,2.43,2.43,0,0,1-.37-.62,2.87,2.87,0,0,1-.46-.69A29.53,29.53,0,0,0,59,21.94l0,0a31.8,31.8,0,0,0-4.33-3.34,5.15,5.15,0,0,1-1.09-.63.63.63,0,0,1-.34-.18h0a29.85,29.85,0,0,0-5.05-2c-.82-.21-1.65-.38-2.47-.56l-.26-.05a.37.37,0,0,1-.29,0l-.44-.05-.2-.05L44,15l-1.93-.14-.81,0-1.46.07-.81,0c-.08.1-.19.05-.29.05H38.5l-2.83.47h-.35c0,.11-.12.12-.2.14l-2.29.67-2,.8c-1.1.57-2.2,1.14-3.27,1.78a36.33,36.33,0,0,0-3.42,2.65,30.29,30.29,0,0,0-3.8,4.28c-.31.46-.61.92-.91,1.38a.2.2,0,0,1-.1.18L18.4,29l-.31.64a1.55,1.55,0,0,1-.26.55,3.37,3.37,0,0,1-.38.92c-.45,1.26-.83,2.54-1.17,3.84l0,.18-.07.27,0,.19c-.09.52-.17,1-.25,1.55a2,2,0,0,1-.09.73,32.49,32.49,0,0,0,0,5,3.14,3.14,0,0,1,.1.91c.08.52.17,1,.25,1.56l0,.18a2.76,2.76,0,0,0,.08.27l0,.19.06.18,0,.18,1,3.2a.58.58,0,0,1,.11.31c.55,1.26,1.17,2.5,1.83,3.71a11.56,11.56,0,0,1,.82,1.28.41.41,0,0,1,.18.27.86.86,0,0,1,.27.38,2.32,2.32,0,0,1,.49.63,23.59,23.59,0,0,0,4.73,4.47l.37.28,1.11.74a.17.17,0,0,1,.16.1,53.67,53.67,0,0,0,5,2.64,1,1,0,0,1,.45.2l1.74.63,2.47.55,2.49.25c.06,0,.12,0,.15,0s.17,0,.25,0a28.55,28.55,0,0,0,4.71-.17ZM43.44,63a13.11,13.11,0,0,1-2.58.09,18,18,0,0,1-5-.66,10.94,10.94,0,0,1-2-.6,11.42,11.42,0,0,1-2.29-.95A17.39,17.39,0,0,1,28.29,59a4.05,4.05,0,0,1-.88-.66,3.13,3.13,0,0,1-.7-.56,3.85,3.85,0,0,1-.82-.74l-.52-.49a4.88,4.88,0,0,1-.91-1A2.16,2.16,0,0,1,24,55a2.25,2.25,0,0,1-.56-.7,15.57,15.57,0,0,1-2.1-3.23A13.47,13.47,0,0,1,20,48.25a15.61,15.61,0,0,1-.89-3.16c0-.09,0-.18-.05-.27l0-.21,0-.18L19,44.14l0-.19a6.29,6.29,0,0,1-.18-1.43.9.9,0,0,1,0-.46,1,1,0,0,1,0-.49V39.28l0-.4c0-.22,0-.43,0-.65A9.92,9.92,0,0,1,19,36.51a1.65,1.65,0,0,1,.12-.66l0-.21a2.56,2.56,0,0,0,.05-.27,16.8,16.8,0,0,1,1-3.25,4.41,4.41,0,0,1,.44-1l.43-.85a.58.58,0,0,1,.19-.38,18.13,18.13,0,0,1,2.48-3.72,4.06,4.06,0,0,1,.84-1,1.21,1.21,0,0,1,.5-.55l.29-.28.66-.62a2.3,2.3,0,0,1,.62-.54,8.22,8.22,0,0,1,1.08-.87h0l.3-.22.27-.19a17,17,0,0,1,2.91-1.72,6.52,6.52,0,0,1,1.4-.63.13.13,0,0,1,.15-.06,14.53,14.53,0,0,1,2.81-.95l.19,0,.57-.17h.2a14.43,14.43,0,0,1,3.52-.48,14.15,14.15,0,0,1,3.62.1,20.06,20.06,0,0,1,6.1,1.5,4.84,4.84,0,0,1,1.54.77.85.85,0,0,1,.44.11,19,19,0,0,1,2.43,1.51,6.26,6.26,0,0,1,1.14.85l.22.16a17.49,17.49,0,0,1,2.64,2.52l.08.09a9.85,9.85,0,0,1,1.16,1.42,1,1,0,0,1,.28.39,4.55,4.55,0,0,1,.66,1c.08,0,.1.1.11.18l.19.29h0l.24.39.16.28c.12.23.24.45.35.68l0,0a1.25,1.25,0,0,1,.27.54.58.58,0,0,1,.19.38,7.87,7.87,0,0,1,.66,1.62A5.63,5.63,0,0,1,63.08,34a18.43,18.43,0,0,1,.64,2.76,2.64,2.64,0,0,1,0,.29,1.37,1.37,0,0,1,.1.66c0,.16,0,.32,0,.47a1.21,1.21,0,0,1,.12.72,18.26,18.26,0,0,1-.1,4l0,.17a1.31,1.31,0,0,1-.06.59l-.05.27a7.84,7.84,0,0,1-.35,1.72l0,.18a19.92,19.92,0,0,1-2.15,5.53,1.42,1.42,0,0,1-.33.57,1.61,1.61,0,0,1-.36.58,10.23,10.23,0,0,1-1,1.47,13.27,13.27,0,0,1-1.17,1.43,18.31,18.31,0,0,1-2.89,2.74l-.09.07a6.33,6.33,0,0,1-1.15.85,14,14,0,0,1-2.78,1.65,17.3,17.3,0,0,1-3.81,1.48l0,0h0a17.61,17.61,0,0,1-3.73.74Z"/><path class="cls-8" d="M49.47,56.3,50,56h0a1.52,1.52,0,0,1,.48-.35h0l1.3-1.18.34-.38.63-.79.43-.66.4-.65c0-.08,0-.15.09-.18a.55.55,0,0,1,.19-.34v0a15.68,15.68,0,0,0,1.35-4.69c0-.32,0-.64.07-1-.2,0-.26.18-.4.21a14,14,0,0,1-2.5,1.74l-.63.39a20.69,20.69,0,0,1-3.83,1.75,1.44,1.44,0,0,1-.73.21,7.85,7.85,0,0,1-1.83.54l-.26,0-.2,0-.25.05a15.53,15.53,0,0,1-4,.34l-.82,0a16.19,16.19,0,0,1-3-.45,5.9,5.9,0,0,1-1.25-.33,19.55,19.55,0,0,1-5.18-2.41.38.38,0,0,1-.27-.17,23.35,23.35,0,0,1-2.74-2l-.05.23a20.58,20.58,0,0,0,.6,3.39c.15.43.31.85.47,1.28a13,13,0,0,0,3.2,4.57h0l1.3,1h0l1.55.85.91.37.38.14.82.24c1,.23,2,.38,3,.52h3l1.83-.18a1.39,1.39,0,0,1,.63-.12,15.6,15.6,0,0,0,4-1.45Z"/></svg>