<svg id="Capa_1" data-name="Capa 1" xmlns="http://www.w3.org/2000/svg" viewBox="0 0 272 71"><defs><style>.cls-1{fill:#005392;}.cls-2{fill:#ce0e2d;fill-rule:evenodd;}</style></defs><path class="cls-1" d="M197.68,36.62c0-11.92,6-20.35,16-20.35,7,0,10.38,5.21,10.38,11.09,0,8.43-3.61,20.58-16,20.58C201.4,47.94,197.68,43.11,197.68,36.62Zm19.53-8.93c0-4.49-1.78-5.93-4.88-5.93-3.89,0-7.66,5.77-7.66,14.36,0,3.33,1.17,6.16,4.66,6.16C213.16,42.28,217.21,37,217.21,27.69Z"/><path class="cls-1" d="M230,22.15h-4.44l.61-5.16h4.39l.22-1.72c.83-9.16,6-11,12.26-11a27.28,27.28,0,0,1,8.21,1.56l-1.83,5.32a27.35,27.35,0,0,0-6.49-.94c-3.5,0-5.11,1.39-5.39,4.94L237.34,17H244l-.56,5.16h-6.6l-2.71,25.12h-6.72Z"/><path class="cls-1" d="M249.43,41.34a24.65,24.65,0,0,1,.17-2.66l1.78-16.48h-4.44l.61-5.21H252l.61-6.22h6.77L258.75,17h8.38l-.5,5.21H258.2l-1.83,16.86c-.28,2.33.05,2.94,1.5,2.94a24.69,24.69,0,0,0,6.71-1.44l1.27,5.11a22.82,22.82,0,0,1-9.48,2.27C252,47.94,249.43,46.78,249.43,41.34Z"/><path class="cls-1" d="M9,8.06h8.76L31.39,39.4l3-31.34h7L37.27,47.27h-9.1L15,16.76,11.86,47.27h-7Z"/><path class="cls-1" d="M45.58,36.4c0-10.21,5.05-20.25,15.81-20.25,6.38,0,9.1,3.72,9.1,7.72,0,5.15-4.71,7.54-9.37,9.09L52.57,35.9a7.11,7.11,0,0,0,0,1c0,3.61.83,5.33,3,5.33,2.39,0,5.61-1.28,9.21-3.22l2.39,4.66c-3.89,2.44-7.77,4.27-13.15,4.27C47,47.94,45.58,42,45.58,36.4Zm15.2-8.76c2.11-.83,3.17-2.06,3.17-3.5a2.52,2.52,0,0,0-2.72-2.55c-4.38,0-7,3.83-8.1,8.93Z"/><path class="cls-1" d="M73.26,41.28a27.76,27.76,0,0,1,.17-2.88L75.7,17h6.83l-2.22,20.8c-.06.61-.11,1.22-.11,1.66,0,1.72.55,2.39,1.88,2.39,2.72,0,6.49-2.66,8-3.77L92.4,17h6.77L96,47.27H89.18l.45-3.93c-2.33,1.94-6,4.6-9.82,4.6C75.32,47.94,73.26,46.44,73.26,41.28Z"/><path class="cls-1" d="M107.27,17H114l-.38,3.82c2.16-1.72,5.38-4.38,8.76-4.38a7.14,7.14,0,0,1,1.78.17L123,23.14a9.25,9.25,0,0,0-2.45-.22c-2.27,0-5.54,2.5-7.43,4l-2.27,20.35h-6.77Z"/><path class="cls-1" d="M123.52,38.34c0-11.31,7.54-21.69,19.25-21.69a45.9,45.9,0,0,1,6.65.56l-3.1,30.06h-6.83l.5-4.54c-3.38,3.21-6.38,5.21-9.32,5.21C125.35,47.94,123.52,44.11,123.52,38.34Zm17-1.22,1.55-14.7a2.77,2.77,0,0,0-1-.11c-6.27,0-10.71,7.6-10.71,15.37,0,2.27.56,4.21,2.16,4.21C134.72,41.89,138.88,38.57,140.55,37.12Z"/><path class="cls-1" d="M158.69,5.39h6.82l-4.44,41.88H154.3Z"/><path class="cls-2" d="M190.83,1.11C180.3.6,169,7.74,168.77,16.46c-.08,2.67,2.4,6.54,8.28,7s13.11,1.34,18,8.91c.38-6.29-5.81-11-13.54-12.34-3.07-.53-5.82-3.35-6.11-5.23-1-6.52,5.87-11.23,15.38-13.72"/><path class="cls-2" d="M187.5,30.68A10.4,10.4,0,0,1,190.84,39C188.23,67.27,146.43,69.67,140,61.48c-1.63-2.08-1.28-6.89,4.84-9.1a8.31,8.31,0,0,0-7.74,9c.68,3.94,8,9,19.11,8.48,18.36-.82,38.39-12.44,36.92-31.07-.29-3.68-2.3-5.78-5.62-8.13"/></svg>