<svg id="Capa_1" data-name="Capa 1" xmlns="http://www.w3.org/2000/svg" viewBox="0 0 325 66"><defs><style>.cls-1{fill:#9e28b5;}.cls-2{fill:#fff;}.cls-3{fill:#a87bc9;}.cls-4{fill:#dddb05;}.cls-5{fill:#7a2682;}.cls-6{fill:#1d1d1b;}</style></defs><polygon class="cls-1" points="2.02 32.68 20.3 63.38 31.27 44.97 23.95 32.68 2.02 32.68"/><path class="cls-2" d="M20.3,63.85a.49.49,0,0,1-.41-.23L1.61,32.93a.48.48,0,0,1,0-.48A.49.49,0,0,1,2,32.21H24a.47.47,0,0,1,.4.23l7.33,12.29a.46.46,0,0,1,0,.48l-11,18.41A.49.49,0,0,1,20.3,63.85ZM2.86,33.16,20.3,62.45,30.71,45l-7-11.81Z"/><polygon class="cls-1" points="56.99 2.22 20.15 2.25 31.27 20.4 45.9 20.4 56.99 2.22"/><path class="cls-2" d="M45.9,20.88H31.27a.49.49,0,0,1-.41-.23L19.75,2.5a.48.48,0,0,1,0-.49.46.46,0,0,1,.41-.24L57,1.74h0a.47.47,0,0,1,.42.24.5.5,0,0,1,0,.49L46.31,20.65A.49.49,0,0,1,45.9,20.88Zm-14.37-1h14.1L56.14,2.7,21,2.72Z"/><polygon class="cls-1" points="53.09 32.47 53.22 32.68 45.9 44.97 56.86 63.38 75.11 32.62 53.09 32.47"/><path class="cls-2" d="M56.86,63.85a.5.5,0,0,1-.41-.23l-11-18.41a.46.46,0,0,1,0-.48l7.17-12a.49.49,0,0,1,0-.44.41.41,0,0,1,.42-.24l22,.15a.48.48,0,0,1,.41.72L57.27,63.62a.47.47,0,0,1-.41.23ZM46.45,45,56.86,62.44,74.28,33.09,53.61,33Z"/><path class="cls-3" d="M20.05,2.41,2,32.68H24L31.27,20.4,20.36,2.58C20.26,2.52,20.15,2.48,20.05,2.41Z"/><path class="cls-2" d="M24,33.16H2a.49.49,0,0,1-.42-.24.48.48,0,0,1,0-.48l18-30.27a.51.51,0,0,1,.3-.22.48.48,0,0,1,.37.06l.12.07.19.1a.46.46,0,0,1,.15.16l10.9,17.81a.46.46,0,0,1,0,.49L24.35,32.93A.47.47,0,0,1,24,33.16ZM2.86,32.21H23.67l7-11.81L20.16,3.17Z"/><path class="cls-3" d="M57,2.24l-.06,0L45.9,20.4l7.19,12.07,22,.15Z"/><path class="cls-2" d="M75.11,33.1h0l-22-.15a.49.49,0,0,1-.41-.23L45.49,20.64a.48.48,0,0,1,0-.49L56.54,2a.49.49,0,0,1,.12-.13.56.56,0,0,1,.41-.11.49.49,0,0,1,.35.2l18.1,30.38a.48.48,0,0,1-.41.72ZM53.36,32l20.91.14L57,3.13,46.46,20.4ZM57.12,2.4,57,2.24Z"/><polygon class="cls-3" points="31.27 44.97 20.3 63.38 56.86 63.38 45.9 44.97 31.27 44.97"/><path class="cls-2" d="M56.86,63.85H20.3a.48.48,0,0,1-.41-.72l11-18.4a.46.46,0,0,1,.41-.24H45.9a.47.47,0,0,1,.41.24l11,18.4a.48.48,0,0,1,0,.48A.48.48,0,0,1,56.86,63.85Zm-35.72-1H56L45.63,45.45H31.54Z"/><polygon class="cls-4" points="75.11 32.62 56.86 63.38 75.14 32.68 75.11 32.62"/><path class="cls-2" d="M56.86,63.85a.53.53,0,0,1-.24-.06.49.49,0,0,1-.17-.66L74.7,32.38a.49.49,0,0,1,.42-.23.47.47,0,0,1,.41.24l0,.06a.48.48,0,0,1,0,.48L57.27,63.62A.47.47,0,0,1,56.86,63.85Z"/><polygon class="cls-5" points="31.27 44.97 23.95 32.68 31.27 20.4 45.9 20.4 53.22 32.68 45.9 44.97 31.27 44.97"/><path class="cls-2" d="M45.9,45.45H31.27a.46.46,0,0,1-.41-.24L23.54,32.93a.48.48,0,0,1,0-.49l7.32-12.29a.47.47,0,0,1,.41-.23H45.9a.49.49,0,0,1,.41.23l7.32,12.29a.53.53,0,0,1,0,.49L46.31,45.21A.47.47,0,0,1,45.9,45.45Zm-14.36-1H45.63l7-11.81-7-11.8H31.54l-7,11.8Z"/><path class="cls-6" d="M99.06,4.15q10.51.33,13.39.33,3.92,0,8.79-.21,5.17-.16,6.38-.16a32.7,32.7,0,0,1,9.65,1.2,12.7,12.7,0,0,1,6.32,4.4,12.14,12.14,0,0,1,2.5,7.72,15.92,15.92,0,0,1-1.75,7.23,17.33,17.33,0,0,1-4.88,5.93,21.07,21.07,0,0,1-6.33,3.51,21.11,21.11,0,0,1-6.67,1.06,32.82,32.82,0,0,1-5.76-.58L120,32l.38-.41a24.23,24.23,0,0,0,5.08.71,11.36,11.36,0,0,0,8.78-3.6,13,13,0,0,0,3.31-9.19,12,12,0,0,0-3.43-9q-3.45-3.36-10.41-3.36a28.22,28.22,0,0,0-8.33,1.41Q115,11.79,115,24V43.25l0,8.1a56.36,56.36,0,0,0,.25,6.06,3.77,3.77,0,0,0,.61,1.82,3,3,0,0,0,1.52.77,32.7,32.7,0,0,0,5.54.48l.34.25v2.08l-.34.33q-10.62-.33-12-.33t-11.93.33l-.33-.33V60.73l.33-.25a45.11,45.11,0,0,0,5.17-.41,3.72,3.72,0,0,0,1.73-.65,3.15,3.15,0,0,0,.71-1.68A38.13,38.13,0,0,0,107,52l0-8.76V24l-.09-8.09a59,59,0,0,0-.23-6.1A3.72,3.72,0,0,0,106.13,8a3,3,0,0,0-1.52-.75,36.71,36.71,0,0,0-5.55-.45l-.33-.3V4.44Z"/><path class="cls-6" d="M160.77,23.24l.79.54c-.16,1.61-.29,4.46-.37,8.56l3.12-4a24.92,24.92,0,0,1,2.73-3,8.77,8.77,0,0,1,2.78-1.64,9.28,9.28,0,0,1,3.25-.58,8.19,8.19,0,0,1,3.46.75l.29.58q-.66,5.52-.75,9.71h-1.88c-1.11-2.54-2.9-3.82-5.37-3.82A6.74,6.74,0,0,0,164.31,32a8,8,0,0,0-2.56,4.11,25.28,25.28,0,0,0-.65,6.25V47q0,1.24.17,6.1a50.6,50.6,0,0,0,.35,5.61,2.18,2.18,0,0,0,.59,1.1,2.13,2.13,0,0,0,1,.47c.43.09,2.41.22,5.94.42l.38.33v1.74l-.38.38q-5.55-.33-11.59-.33-4.8,0-10,.33l-.38-.38V61l.38-.33c2.69-.17,4.21-.29,4.56-.38a1.92,1.92,0,0,0,.92-.51,2.31,2.31,0,0,0,.54-1.21c.1-.54.21-2.32.33-5.35s.19-5.32.19-6.87V38.19c0-1.11-.06-2.62-.17-4.53s-.2-3.08-.27-3.52a1.29,1.29,0,0,0-.64-1,5,5,0,0,0-2.17-.31l-3.5,0-.38-.34V26.69l.34-.33A54.66,54.66,0,0,0,160.77,23.24Z"/><path class="cls-6" d="M211.93,56.7l-1.34,3a26.28,26.28,0,0,1-7.73,3.61,25.59,25.59,0,0,1-6.07.83,23.52,23.52,0,0,1-9.48-1.95,15.9,15.9,0,0,1-7.3-6.6,21.3,21.3,0,0,1-2.81-11.21,26.67,26.67,0,0,1,1.08-7.86,19.34,19.34,0,0,1,2.28-5.21,17.35,17.35,0,0,1,4-3.78,26.78,26.78,0,0,1,6-3.32A18.52,18.52,0,0,1,197.42,23a16.56,16.56,0,0,1,8.82,2.35,12.83,12.83,0,0,1,5.35,6,19.69,19.69,0,0,1,1.55,7.76c0,.86,0,1.69-.13,2.49l-.46.46a47.22,47.22,0,0,1-7.63.83c-3.19.14-5.31.21-6.33.21H185.2q.09,8.58,4.34,12.66A14.5,14.5,0,0,0,200,59.77a16.09,16.09,0,0,0,5.61-1A35.63,35.63,0,0,0,211.26,56Zm-26.73-17c.5.09,2.43.18,5.78.29s5.83.17,7.44.17a64.78,64.78,0,0,0,7.05-.21c0-.66,0-1.17,0-1.53q0-6.44-2.63-9.57a8.86,8.86,0,0,0-7.17-3.14A9.27,9.27,0,0,0,188,29.26Q185.21,32.8,185.2,39.72Z"/><path class="cls-6" d="M216.77,50.6h1.79l.37.37a57.64,57.64,0,0,0,.42,6,9.08,9.08,0,0,0,4.46,3.18,17.4,17.4,0,0,0,6.26,1.22A10.23,10.23,0,0,0,237.13,59a7.32,7.32,0,0,0,2.65-5.65,5.07,5.07,0,0,0-1-3.09,7,7,0,0,0-2.9-2.16,44.06,44.06,0,0,0-6.94-2q-4.29-1-6-1.56a9.76,9.76,0,0,1-3.29-1.89,8.6,8.6,0,0,1-2.42-3.26,10.54,10.54,0,0,1-.84-4.25,10.6,10.6,0,0,1,4.44-8.91,17.87,17.87,0,0,1,11.07-3.34,27.13,27.13,0,0,1,6.09.77,34.42,34.42,0,0,1,5,1.47l.38.58a67.24,67.24,0,0,0-.42,8.72l-.37.37H241l-.38-.37a18.71,18.71,0,0,0-.46-3.55,5.25,5.25,0,0,0-1.5-2.2,9.39,9.39,0,0,0-3.42-2,13.45,13.45,0,0,0-4.67-.81,10.74,10.74,0,0,0-4.27.75,6.44,6.44,0,0,0-2.79,2.26,6.21,6.21,0,0,0-1.06,3.67,6.08,6.08,0,0,0,.64,2.83,4.91,4.91,0,0,0,2,2,10.08,10.08,0,0,0,2.79,1.1l4.55,1.16a64,64,0,0,1,8.36,2.45,8.35,8.35,0,0,1,3.9,3.13A9.15,9.15,0,0,1,246,50.31a12.59,12.59,0,0,1-4.75,9.84q-4.76,4.11-12.22,4.11a46.69,46.69,0,0,1-6.52-.58,67.51,67.51,0,0,1-6.65-1.29l-.21-.54.42-2.78a20.43,20.43,0,0,0,.25-2.6c0-.87.05-2.7.08-5.5Z"/><path class="cls-6" d="M282.18,56.7l-1.33,3a26.28,26.28,0,0,1-7.73,3.61,25.59,25.59,0,0,1-6.07.83,23.53,23.53,0,0,1-9.49-1.95,15.88,15.88,0,0,1-7.29-6.6,21.21,21.21,0,0,1-2.82-11.21,26.66,26.66,0,0,1,1.09-7.86,19.37,19.37,0,0,1,2.27-5.21,17.35,17.35,0,0,1,4-3.78,26.63,26.63,0,0,1,6-3.32A18.51,18.51,0,0,1,267.67,23a16.52,16.52,0,0,1,8.82,2.35,12.86,12.86,0,0,1,5.36,6,19.69,19.69,0,0,1,1.54,7.76q0,1.29-.12,2.49l-.46.46a47.36,47.36,0,0,1-7.63.83q-4.8.21-6.34.21H255.46q.07,8.58,4.34,12.66a14.48,14.48,0,0,0,10.42,4.06,16.07,16.07,0,0,0,5.6-1,35.7,35.7,0,0,0,5.7-2.78Zm-26.72-17c.5.09,2.42.18,5.77.29s5.83.17,7.44.17a64.52,64.52,0,0,0,7.05-.21c0-.66,0-1.17,0-1.53q0-6.44-2.62-9.57A8.87,8.87,0,0,0,266,25.73a9.3,9.3,0,0,0-7.74,3.53Q255.46,32.8,255.46,39.72Z"/><path class="cls-6" d="M291.65,34.66,290,34.24l-.33-.41V28.68q7.43-5.47,14.43-5.48a16.05,16.05,0,0,1,8,1.79,11.14,11.14,0,0,1,4.58,4.46,13.13,13.13,0,0,1,1.42,6.25L317.87,44V56.41a7.39,7.39,0,0,0,.36,3.07,1.75,1.75,0,0,0,.81.73,7.29,7.29,0,0,0,1.71.31l2.38.21.33.37v1.66l-.33.34c-2-.17-3.92-.25-5.67-.25s-3.67.08-6,.25l-.62-.59.16-6.68-9.08,7.06a13,13,0,0,1-5,1,12.68,12.68,0,0,1-5.73-1.2,8.61,8.61,0,0,1-3.67-3.36,10.13,10.13,0,0,1-1.27-5.23q0-6.11,3.84-9.53T311,38.69c0-4.1-.91-7-2.75-8.66a10.53,10.53,0,0,0-7.38-2.51,13,13,0,0,0-4.39.71,5.72,5.72,0,0,0-2.28,1.14q-.29.43-2.25,5.08ZM311,41.22q-11.67,2-14.55,4.19t-2.87,6.93q0,6.48,6.46,6.48,5.55,0,11-6.39Z"/></svg>